 http://www.imdb.com/title/tt0292506/

Source: The.Recruit.2003.720p.BluRay.x264-SiNNERS Thanks!

Subs: Arabic, Brazilian, Bulgarian, Danish, Dutch, English, Farsi-Persian, Finnish, Greek, Hebrew, Indonesian, Romanian, Servian, Slovenian, Swedish, Turkish and Vietnamese.

Sample and Screens included.

General
Complete name                    : The Recruit-720p MP4 AAC x264 BRRip 2003-CC.mp4
Format                           : MPEG-4
Format profile                   : Base Media
Codec ID                         : isom
File size                        : 2.70 GiB
Duration                         : 1h 55mn
Overall bit rate                 : 3 362 Kbps
Encoded date                     : UTC 2012-08-25 07:51:46

Video
ID                               : 1
Format                           : AVC
Format/Info                      : Advanced Video Codec
Format profile                   : High@L3.1
Format settings, CABAC           : Yes
Format settings, ReFrames        : 5 frames
Codec ID                         : avc1
Codec ID/Info                    : Advanced Video Coding
Duration                         : 1h 55mn
Bit rate mode                    : Variable
Bit rate                         : 2 976 Kbps
Nominal bit rate                 : 2 991 Kbps
Maximum bit rate                 : 33.1 Mbps
Width                            : 1 280 pixels
Height                           : 544 pixels
Display aspect ratio             : 2.35:1
Frame rate mode                  : Variable
Frame rate                       : 23.976 fps
Minimum frame rate               : 7.992 fps
Maximum frame rate               : 23.981 fps
Resolution                       : 24 bits
Colorimetry                      : 4:2:0
Scan type                        : Progressive
Bits/(Pixel*Frame)               : 0.178
Stream size                      : 2.39 GiB (88%)
Writing library                  : x264 core 112

Audio
ID                               : 2
Format                           : AAC
Format/Info                      : Advanced Audio Codec
Format version                   : Version 4
Format profile                   : LC
Format settings, SBR             : No
Codec ID                         : 40
Duration                         : 1h 55mn
Bit rate mode                    : Variable
Bit rate                         : 384 Kbps
Maximum bit rate                 : 652 Kbps
Channel(s)                       : 6 channels
Channel positions                : Front: L C R, Rear: L R, LFE
Sampling rate                    : 48.0 KHz
Resolution                       : 16 bits
Stream size                      : 315 MiB (11%)

Enjoy...

Requested by cmptrluvr's. 

Coming up: The Bourne Trilogy, Romeo Must Die and more...